<svg xmlns="http://www.w3.org/2000/svg" viewBox="0 0 960 560" role="img" aria-label="Printer illustration">
  <defs>
    <linearGradient id="g1" x1="0" x2="1" y1="0" y2="1">
      <stop offset="0%" stop-color="#4f46e5"/>
      <stop offset="100%" stop-color="#06b6d4"/>
    </linearGradient>
    <linearGradient id="g2" x1="0" x2="0" y1="0" y2="1">
      <stop offset="0%" stop-color="#ffffff" stop-opacity="0.8"/>
      <stop offset="100%" stop-color="#e2e8f0"/>
    </linearGradient>
  </defs>
  <rect width="960" height="560" fill="url(#g1)"/>
  <g transform="translate(160,100)">
    <rect x="0" y="120" rx="16" ry="16" width="640" height="240" fill="#0f172a" opacity="0.85"/>
    <rect x="100" y="0" rx="14" ry="14" width="440" height="140" fill="#1f2937"/>
    <rect x="120" y="20" rx="8" ry="8" width="400" height="100" fill="#111827"/>
    <rect x="80" y="360" rx="10" ry="10" width="480" height="60" fill="#1f2937"/>
    <rect x="100" y="375" rx="6" ry="6" width="440" height="30" fill="url(#g2)"/>
    <circle cx="560" cy="200" r="10" fill="#22c55e"/>
    <circle cx="588" cy="200" r="10" fill="#f59e0b"/>
    <circle cx="616" cy="200" r="10" fill="#ef4444"/>
  </g>
  <g opacity="0.15">
    <circle cx="860" cy="80" r="4" fill="#fff"/>
    <circle cx="820" cy="140" r="3" fill="#fff"/>
    <circle cx="900" cy="160" r="3" fill="#fff"/>
    <circle cx="880" cy="220" r="4" fill="#fff"/>
    <circle cx="820" cy="260" r="3" fill="#fff"/>
  </g>
</svg>

